<svg xmlns="http://www.w3.org/2000/svg" id="_Слой_2" data-name="Слой 2" viewBox="0 0 256 256">
    <defs>
        <style>
            .cls-1 {
            fill: #8f1a1c;
            }
        </style>
    </defs>
    <g id="_Слой_1-2" data-name="Слой 1">
        <g>
            <path d="M253.9,69.91h-8.09c-1.15,0-2.1.86-2.1,1.92l.04,42.74c0,1.31-1.16,2.37-2.59,2.37h-16.27c-1.43,0-2.59,1.06-2.59,2.37l.03,101.6c0,10.8-9.57,19.56-21.38,19.56H55.04c-11.81,0-21.38-8.76-21.38-19.56V86.07c0-1.06-.94-1.92-2.1-1.92H12.28v-12.32c0-1.06-.94-1.92-2.1-1.92H2.1c-1.15,0-2.1.86-2.1,1.92v176.46c0,4.26,3.77,7.71,8.42,7.71h239.19c4.63,0,8.39-3.44,8.39-7.71V71.83c0-1.05-.91-1.92-2.1-1.92ZM23.95,222.85c0,1.39-1.25,2.54-2.77,2.54h-5.92c-1.52,0-2.74-1.11-2.74-2.51v-9.22c0-1.36,1.22-2.51,2.74-2.51h5.95c1.52,0,2.74,1.15,2.74,2.51v9.19ZM23.95,186.92c0,1.39-1.22,2.51-2.74,2.51h-5.95c-1.52,0-2.74-1.11-2.74-2.51v-9.19c0-1.39,1.25-2.54,2.77-2.54h5.92c1.52,0,2.74,1.11,2.74,2.51v9.22ZM23.95,150.96c0,1.39-1.22,2.51-2.74,2.51h-5.95c-1.52,0-2.74-1.11-2.74-2.51v-9.19c0-1.39,1.22-2.51,2.74-2.51h5.95c1.52,0,2.74,1.11,2.74,2.51v9.19ZM23.95,115c0,1.39-1.25,2.54-2.77,2.54h-5.92c-1.52,0-2.74-1.11-2.74-2.51v-9.22c0-1.39,1.22-2.51,2.74-2.51h5.95c1.52,0,2.74,1.11,2.74,2.51v9.19ZM243.48,222.89c0,1.39-1.22,2.51-2.74,2.51h-5.92c-1.52,0-2.77-1.15-2.77-2.54v-9.19c0-1.36,1.22-2.51,2.74-2.51h5.95c1.52,0,2.74,1.15,2.74,2.51v9.22ZM243.48,186.92c0,1.39-1.22,2.51-2.74,2.51h-5.95c-1.49,0-2.74-1.11-2.74-2.51v-9.22c0-1.39,1.25-2.51,2.74-2.51h5.92c1.56,0,2.77,1.15,2.77,2.54v9.19ZM243.48,150.96c0,1.39-1.22,2.51-2.74,2.51h-5.95c-1.49,0-2.74-1.11-2.74-2.51v-9.19c0-1.39,1.25-2.51,2.74-2.51h5.95c1.52,0,2.74,1.11,2.74,2.51v9.19Z"/>
            <path d="M187.36,73.47v27.26s-31.73,1.7-59.34,26.86c-27.61-25.16-59.37-26.86-59.37-26.86v-27.26l59.37,24.11,59.34-24.11Z"/>
            <path d="M128.02,155.36c-.91-1.33-24.97-36.46-83.7-42.12v82.44s59.07,9.87,83.66,42.12h.03c24.6-32.25,83.66-42.12,83.66-42.12v-82.44c-58.73,5.66-82.78,40.79-83.66,42.12ZM123.79,222.02c-25.47-25.53-71.69-32.59-71.69-32.59v-67.74c51.25,6.84,71.69,41.25,71.69,41.25v59.08ZM203.9,189.43s-46.21,7.06-71.69,32.59v-59.08s20.43-34.41,71.69-41.25v67.74Z"/>
            <polygon class="cls-1" points="233.27 100.15 209.85 100.15 218.08 80.12 218.08 70.96 225.01 70.96 225.01 80.12 233.27 100.15"/>
            <polygon points="237.76 45.83 225.55 51 225.55 79.5 217.5 79.5 217.5 54.38 128.02 92.16 18.24 45.83 128.02 0 237.76 45.83"/>
        </g>
    </g>
</svg>